<?xml version="1.0" encoding="UTF-8"?>
<!DOCTYPE svg PUBLIC "-//W3C//DTD SVG 1.1//EN" "http://www.w3.org/Graphics/SVG/1.1/DTD/svg11.dtd">
<!-- Creator: CorelDRAW X7 -->
<svg xmlns="http://www.w3.org/2000/svg" xml:space="preserve" width="30.0127mm" height="30.3211mm" version="1.1" style="shape-rendering:geometricPrecision; text-rendering:geometricPrecision; image-rendering:optimizeQuality; fill-rule:evenodd; clip-rule:evenodd"
viewBox="0 0 202 204"
 xmlns:xlink="http://www.w3.org/1999/xlink">
 <defs>
  <style type="text/css">
   <![CDATA[
    .fil0 {fill:#CEA263}
   ]]>
  </style>
 </defs>
 <g id="Camada_x0020_1">
  <metadata id="CorelCorpID_0Corel-Layer"/>
  <g id="_2193796480880">
   <path class="fil0" d="M9 132c1,6 7,18 10,22 8,12 19,25 32,32 5,3 16,10 23,10 1,-2 1,-2 2,-5 -6,-1 -17,-6 -21,-9 -8,-5 -12,-9 -18,-14 -13,-11 -17,-24 -24,-38 -2,0 -2,1 -4,2z"/>
   <path class="fil0" d="M127 14c48,13 59,57 62,60 2,-1 3,-1 4,-3 -4,-21 -26,-44 -44,-55 -4,-2 -7,-3 -11,-5 -6,-2 -10,-5 -11,3z"/>
   <path class="fil0" d="M13 77c6,-23 23,-42 41,-53 5,-4 13,-8 21,-10 -1,-3 -2,-4 -4,-5 -13,3 -31,16 -41,26 -8,10 -15,20 -19,31 -3,6 -4,10 2,11z"/>
   <path class="fil0" d="M128 190l2 5c12,0 35,-19 40,-24 6,-6 9,-10 14,-18 3,-5 9,-18 10,-23 -2,-1 -2,-2 -5,-3 -6,18 -12,28 -23,39 -8,9 -22,20 -38,24z"/>
   <path class="fil0" d="M129 135c-6,0 -10,1 -12,6 -2,6 2,9 8,8 1,-1 1,-1 2,-3l1 -4c12,12 -7,33 -7,33 0,3 3,10 5,11 4,1 17,-6 21,-8 9,-6 25,-21 29,-31 3,-5 9,-17 9,-22 -2,-2 -7,-4 -12,-4 -10,13 -28,16 -31,8 0,0 0,-1 0,-1 0,0 5,-1 5,-5 1,-4 -1,-6 -5,-7 -3,0 -6,2 -7,3 -2,3 -2,6 -1,10 -3,-3 -3,-7 -6,-10 -2,-3 -8,-2 -12,-3 0,4 1,12 3,13 2,3 7,2 10,6zm26 11c3,-5 8,-8 14,-10 -1,4 -4,8 -6,12 -3,3 -5,5 -12,4 1,8 1,9 -4,13 -1,1 -11,8 -11,6 0,0 0,0 -1,0 1,-1 1,0 1,-2 0,0 1,0 1,0 0,-1 0,-2 0,-3 5,-9 4,-5 8,-9 -1,-3 -3,0 -4,-6 0,-3 0,-6 0,-9 3,0 6,0 8,1 4,1 3,2 6,3z"/>
   <path class="fil0" d="M134 129c1,-2 0,1 0,0 0,0 -1,1 0,0z"/>
   <path class="fil0" d="M129 135c1,-1 0,1 0,0 0,0 -1,1 0,0z"/>
   <path class="fil0" d="M121 29c8,5 17,23 7,32 -2,-2 -1,-5 -5,-6 -3,0 -6,2 -7,5 -1,2 0,8 5,9l5 2c-12,3 -10,7 -9,15 16,0 10,0 17,-12 1,5 0,13 9,12 3,0 5,-2 5,-6 0,-5 -3,-4 -6,-5 7,-11 26,1 30,7l13 -5c0,-5 -6,-17 -9,-21 -9,-16 -34,-39 -52,-39 -1,3 -3,7 -3,12zm24 18c0,0 -9,-7 -10,-15 4,2 8,4 11,7 4,3 6,5 5,12 4,0 4,-1 7,0 4,2 10,12 11,15 -10,-2 -11,-6 -14,-9 -3,5 -7,5 -14,5 1,-7 0,-10 4,-15z"/>
   <path class="fil0" d="M129 68c0,0 2,1 -3,2l3 -2z"/>
   <path class="fil0" d="M70 130c-2,-2 -1,0 -1,-2 -1,-1 -1,-2 -1,-3 -2,-12 -15,-8 -14,0 1,3 4,4 5,4 2,1 0,0 2,1 -6,5 -11,5 -19,1 -7,-2 -10,-6 -14,-10 -3,2 -8,4 -11,6 0,10 14,30 23,38 6,6 8,9 17,14 4,2 16,8 22,8 1,-1 5,-9 3,-11 0,-1 -5,-6 -7,-9 -4,-6 -8,-21 0,-24 2,3 1,6 5,6 7,1 9,-9 4,-13 -2,-2 -5,-2 -9,-1 0,0 0,0 0,0l2 -1c10,-7 9,1 9,-17 -14,0 -12,3 -16,13zm-20 23c-2,0 -2,2 -7,0 -3,-1 -9,-12 -10,-16 11,4 10,6 14,10 3,-2 2,-4 15,-5 0,3 0,7 -1,9 -1,4 -2,2 -3,6 5,2 8,10 10,15 -20,-8 -15,-14 -18,-19z"/>
   <line class="fil0" x1="74" y1="135" x2="74" y2= "135" />
   <path class="fil0" d="M29 83c4,-9 28,-18 32,-7 -3,1 -6,2 -6,6 0,4 3,6 6,6 8,0 9,-7 8,-13 8,12 1,13 18,11 -1,-12 -3,-12 -12,-16 3,-3 10,0 11,-9 1,-7 -5,-8 -10,-6 -1,3 -1,3 0,6 -9,-2 -5,-19 0,-25 2,-3 4,-4 6,-7 -1,-5 -3,-9 -5,-12 -15,2 -31,16 -42,27 -5,5 -18,27 -18,33 0,4 8,6 12,6zm22 -32c2,-4 -4,-6 5,-11 3,-3 7,-5 11,-7 -1,3 -2,6 -4,9 -2,4 -3,3 -6,5 5,5 5,6 5,16 -20,-4 -8,-3 -15,-5 -2,3 -3,5 -6,7 -3,1 -6,2 -9,4 0,-3 5,-10 7,-12 7,-8 8,-4 12,-6z"/>
   <path class="fil0" d="M96 7c-2,-3 -3,-6 -7,-5 -4,1 -3,4 -5,7 -1,-2 -2,-4 -4,-4 -2,-1 -9,-2 -6,2 18,24 16,53 15,83 -29,0 -55,3 -79,-11 -3,-2 -4,-5 -7,-5 -1,5 -1,7 3,10l2 1c-9,3 -11,6 -3,12 -3,1 -6,2 -5,6 1,4 4,4 7,5 -2,2 -5,3 -5,7 0,4 4,4 7,6 -3,3 -7,3 -4,11 4,-2 12,-12 36,-16 15,-2 32,-2 48,-1 2,13 1,49 -1,57 -2,6 -4,11 -6,16 -4,9 -8,9 -8,13 6,2 7,-1 10,-5 2,4 1,6 5,7 5,1 5,-1 7,-4 2,3 2,6 7,5 4,0 3,-4 5,-7 1,3 2,5 6,5 4,-1 4,-3 5,-7l2 2c4,5 8,3 9,2l0 -1c-1,-1 -6,-6 -9,-14 -9,-23 -8,-44 -7,-70 9,-1 39,-1 49,1 8,1 13,3 20,5 2,1 7,4 9,5 2,1 4,5 7,5 2,-5 -1,-8 -5,-11 4,-2 7,0 8,-5 0,-4 -3,-6 -6,-7 3,-1 6,-2 6,-5 0,-5 -3,-5 -6,-7 6,-3 6,-10 -3,-11l3 -2c1,-2 1,0 2,-3 1,-2 0,-4 -1,-7 -3,1 -8,6 -12,9 -19,10 -49,9 -72,9 0,-24 -2,-50 7,-71 4,-8 9,-15 9,-16 -5,-1 -8,1 -9,5 -1,0 -1,-1 -1,-1 0,0 0,0 0,0 -1,-2 -2,-6 -4,-7 -4,-1 -6,2 -7,5 -2,-2 -3,-5 -7,-5 -4,1 -3,4 -5,7zm-44 95c0,0 0,0 -1,0 0,0 0,0 0,0 -2,1 0,0 -1,1l-8 1c-8,1 -25,6 -26,-1 -1,-8 14,-4 16,-4 7,2 13,2 20,3zm99 0c2,-1 15,-3 19,-3 6,-1 16,-5 16,4 -6,5 -9,3 -17,2 -4,-1 -16,-2 -18,-3zm-49 50c1,7 1,13 2,20 1,4 4,16 -2,16 -6,0 -4,-12 -3,-16 1,-6 0,-16 3,-20zm0 -100c-2,-3 -2,-16 -3,-20 -1,-6 -5,-17 5,-16 3,7 1,10 0,18 0,4 -1,16 -2,18z"/>
  </g>
 </g>
</svg>
